<svg width="32" height="10" viewBox="0 0 32 10" fill="none" xmlns="http://www.w3.org/2000/svg">
<path d="M0.0400009 0.769999H4.33V1.7H1.01V4.01H3.92V4.93H1.01V8H0.0400009V0.769999Z" fill="#B0C723"/>
<path d="M6.19867 0.259999H7.12867V8H6.19867V0.259999Z" fill="#B0C723"/>
<path d="M9.58774 9.99L12.3177 3.86H13.1777L10.5077 9.99H9.58774ZM10.6077 8.03L8.61773 3.86H9.66774L11.3377 7.56L10.6077 8.03Z" fill="#B0C723"/>
<path d="M17.1991 8.1C16.8191 8.1 16.4825 8.01667 16.1891 7.85C15.9025 7.68333 15.6725 7.47333 15.4991 7.22L15.6091 6.93V8H14.6791V0.259999H15.5991V4.81L15.5691 4.46C15.7358 4.23333 15.9725 4.05 16.2791 3.91C16.5925 3.76333 16.9391 3.69 17.3191 3.69C17.6925 3.69 18.0325 3.78 18.3391 3.96C18.6458 4.14 18.8891 4.39333 19.0691 4.72C19.2558 5.04 19.3491 5.42333 19.3491 5.87C19.3491 6.33667 19.2491 6.73667 19.0491 7.07C18.8558 7.40333 18.5958 7.66 18.2691 7.84C17.9425 8.01333 17.5858 8.1 17.1991 8.1ZM17.0091 7.31C17.2758 7.31 17.5158 7.24667 17.7291 7.12C17.9425 6.99333 18.1091 6.82333 18.2291 6.61C18.3491 6.39 18.4091 6.14 18.4091 5.86C18.4091 5.59333 18.3458 5.35333 18.2191 5.14C18.0991 4.92 17.9325 4.74667 17.7191 4.62C17.5125 4.49333 17.2758 4.43 17.0091 4.43C16.7825 4.43 16.5725 4.47333 16.3791 4.56C16.1858 4.64667 16.0225 4.76667 15.8891 4.92C15.7558 5.06667 15.6625 5.24 15.6091 5.44V6.27C15.6625 6.47 15.7525 6.65 15.8791 6.81C16.0058 6.96333 16.1658 7.08667 16.3591 7.18C16.5525 7.26667 16.7691 7.31 17.0091 7.31Z" fill="#B0C723"/>
<path d="M20.7469 5.89C20.7469 5.47667 20.8435 5.10333 21.0369 4.77C21.2369 4.43667 21.5102 4.17333 21.8569 3.98C22.2035 3.78667 22.5969 3.69 23.0369 3.69C23.4902 3.69 23.8869 3.78667 24.2269 3.98C24.5669 4.17333 24.8302 4.43667 25.0169 4.77C25.2035 5.10333 25.2969 5.47667 25.2969 5.89C25.2969 6.30333 25.2035 6.68 25.0169 7.02C24.8302 7.35333 24.5635 7.61667 24.2169 7.81C23.8769 8.00333 23.4802 8.1 23.0269 8.1C22.5869 8.1 22.1935 8.01 21.8469 7.83C21.5069 7.64333 21.2369 7.38667 21.0369 7.06C20.8435 6.72667 20.7469 6.33667 20.7469 5.89ZM21.6769 5.9C21.6769 6.16667 21.7369 6.41 21.8569 6.63C21.9769 6.84333 22.1369 7.01333 22.3369 7.14C22.5435 7.26667 22.7702 7.33 23.0169 7.33C23.2769 7.33 23.5069 7.26667 23.7069 7.14C23.9135 7.01333 24.0735 6.84333 24.1869 6.63C24.3002 6.41 24.3569 6.16667 24.3569 5.9C24.3569 5.63333 24.3002 5.39333 24.1869 5.18C24.0735 4.96 23.9135 4.78667 23.7069 4.66C23.5069 4.52667 23.2769 4.46 23.0169 4.46C22.7635 4.46 22.5335 4.52667 22.3269 4.66C22.1269 4.79333 21.9669 4.97 21.8469 5.19C21.7335 5.40333 21.6769 5.64 21.6769 5.9Z" fill="#B0C723"/>
<path d="M26.6961 5.89C26.6961 5.47667 26.7928 5.10333 26.9861 4.77C27.1861 4.43667 27.4594 4.17333 27.8061 3.98C28.1528 3.78667 28.5461 3.69 28.9861 3.69C29.4394 3.69 29.8361 3.78667 30.1761 3.98C30.5161 4.17333 30.7794 4.43667 30.9661 4.77C31.1528 5.10333 31.2461 5.47667 31.2461 5.89C31.2461 6.30333 31.1528 6.68 30.9661 7.02C30.7794 7.35333 30.5128 7.61667 30.1661 7.81C29.8261 8.00333 29.4294 8.1 28.9761 8.1C28.5361 8.1 28.1428 8.01 27.7961 7.83C27.4561 7.64333 27.1861 7.38667 26.9861 7.06C26.7928 6.72667 26.6961 6.33667 26.6961 5.89ZM27.6261 5.9C27.6261 6.16667 27.6861 6.41 27.8061 6.63C27.9261 6.84333 28.0861 7.01333 28.2861 7.14C28.4928 7.26667 28.7194 7.33 28.9661 7.33C29.2261 7.33 29.4561 7.26667 29.6561 7.14C29.8628 7.01333 30.0228 6.84333 30.1361 6.63C30.2494 6.41 30.3061 6.16667 30.3061 5.9C30.3061 5.63333 30.2494 5.39333 30.1361 5.18C30.0228 4.96 29.8628 4.78667 29.6561 4.66C29.4561 4.52667 29.2261 4.46 28.9661 4.46C28.7128 4.46 28.4828 4.52667 28.2761 4.66C28.0761 4.79333 27.9161 4.97 27.7961 5.19C27.6828 5.40333 27.6261 5.64 27.6261 5.9Z" fill="#B0C723"/>
</svg>
